<svg width="64" height="64" viewBox="0 0 64 64" fill="none" xmlns="http://www.w3.org/2000/svg">
<path d="M31.9987 5.33325C17.3054 5.33325 5.33203 17.3066 5.33203 31.9999C5.33203 46.6933 17.3054 58.6666 31.9987 58.6666C46.692 58.6666 58.6654 46.6933 58.6654 31.9999C58.6654 17.3066 46.692 5.33325 31.9987 5.33325ZM39.4387 33.4133L30.0254 42.8266C29.6254 43.2266 29.1187 43.4133 28.612 43.4133C28.1054 43.4133 27.5987 43.2266 27.1987 42.8266C26.4254 42.0533 26.4254 40.7733 27.1987 39.9999L35.1987 31.9999L27.1987 23.9999C26.4254 23.2266 26.4254 21.9466 27.1987 21.1733C27.972 20.3999 29.252 20.3999 30.0254 21.1733L39.4387 30.5866C40.2387 31.3599 40.2387 32.6399 39.4387 33.4133Z" fill="white"/>
</svg>
